<svg width="50" height="50" xmlns="http://www.w3.org/2000/svg">
 <defs>
  <linearGradient y2="0.32529" x2="0.50001" y1="0.92662" x1="0.50001" id="_제_그라디언트_31">
   <stop stop-color="#69c5f0" offset="0"/>
   <stop stop-color="#57a8df" offset="0.32"/>
   <stop stop-color="#2c61b5" offset="1"/>
  </linearGradient>
  <linearGradient y2="1.04132" x2="0.49999" y1="-0.38186" x1="0.49999" id="_제_그라디언트_17">
   <stop stop-color="#000" offset="0"/>
   <stop stop-color="#fff" offset="1"/>
  </linearGradient>
 </defs>
 <g>
  <title>Layer 1</title>
  <g stroke="null" id="svg_6">
   <path stroke="null" id="svg_1" fill="#2c61b5" d="m38.7292,29.82937l2.04146,0l0,0.88573l-2.9333,0l0,-4.42011l0.89184,0l0,3.53437z" class="cls-1"/>
   <path stroke="null" id="svg_2" fill="#2c61b5" d="m42.42117,27.57901c0.32131,0 0.63528,0.1405 0.85763,0.39705l0,-0.40805l0.88695,0l0,3.13732l-0.88695,0.00611l0,-0.33841c-0.22113,0.25045 -0.53633,0.39094 -0.85763,0.39094c-0.95659,0 -1.49902,-0.73546 -1.49902,-1.59187s0.54243,-1.59187 1.49902,-1.59187l0,-0.00122zm0.79899,1.59187c-0.00611,-0.43737 -0.3323,-0.76356 -0.70614,-0.76356c-0.49601,0 -0.70492,0.32619 -0.70492,0.76356s0.21013,0.75867 0.70492,0.75867c0.37262,0 0.70003,-0.32619 0.70614,-0.75867z" class="cls-1"/>
   <path stroke="null" id="svg_3" fill="#2c61b5" d="m44.84136,26.16794l0.86863,0l0,1.84232c0.23334,-0.25045 0.57175,-0.36162 0.79899,-0.36162c0.91017,0 1.41717,0.69392 1.41717,1.49902s-0.507,1.51002 -1.41717,1.51002c-0.22724,0 -0.54243,-0.04032 -0.79899,-0.36773l0,0.32619l-0.86863,-0.00611l0,-4.44332l0,0.00122zm2.19906,2.97972c0,-0.37873 -0.16982,-0.67682 -0.62429,-0.67682c-0.33841,0 -0.62429,0.29809 -0.62429,0.67682s0.28588,0.68782 0.62429,0.68782c0.45447,0 0.62429,-0.29687 0.62429,-0.68782z" class="cls-1"/>
   <path stroke="null" id="svg_4" fill="url(#_제_그라디언트_31)" d="m3.9621,16.71322l-3.05669,-8.68628l5.81406,0l3.04447,8.68628l-5.80185,0zm24.40099,0l3.05669,-8.68628l-5.81406,0l-3.04447,8.68628l5.80185,0zm-8.44194,0l3.05669,-8.68628l-5.81406,0l-3.04447,8.68628l5.80185,0zm-0.6023,1.71038l-5.80062,0l-1.57843,4.50196l-1.57843,-4.50196l-5.79818,0l4.4873,12.75087l-0.00977,0.02932l5.80307,0l-0.00977,-0.02932l4.4873,-12.75087l-0.00244,0zm2.64131,0l-4.47997,12.78019l5.7823,0l4.49707,-12.78019l-5.80062,0l0.00122,0zm27.10094,-3.45863c-0.40072,-5.09326 -4.72553,-6.93803 -7.5391,-6.93803l-7.47557,0l-3.04447,8.68628l5.80185,0l1.27423,-3.62111l3.40976,0c0.07208,0.00244 0.76845,0.04032 1.41228,0.3775c0.49601,0.26022 1.01645,0.68904 1.11175,1.89363c0.1124,1.42206 -0.35796,1.94128 -0.51311,2.1111c-0.70859,0.78189 -2.09643,0.97858 -2.58023,0.98958l-2.31023,0l-1.70549,5.06516l4.03161,0c0.39583,0 3.93387,-0.0733 6.2722,-2.60344c0.97736,-1.05677 2.09155,-2.94918 1.85454,-5.96067zm-18.66022,3.45863l-4.47997,12.78019l5.7823,0l4.49707,-12.78019l-5.80062,0l0.00122,0z" class="cls-2"/>
   <path stroke="null" id="svg_5" opacity="0.7" fill="url(#_제_그라디언트_17)" d="m9.76395,37.95001l-3.04447,4.02305l-5.81406,0l3.05669,-4.02305l5.80185,0zm12.79607,0l3.04447,4.02305l5.81406,0l-3.05669,-4.02305l-5.80185,0zm-8.44194,0l3.04447,4.02305l5.81406,0l-3.05669,-4.02305l-5.80185,0zm0.71347,-6.69735l0.00977,-0.01344l-5.80307,0l0.00977,0.01344l-4.4873,5.90447l5.80062,0l1.57843,-2.08544l1.57843,2.08544l5.80062,0l-4.4873,-5.90447zm12.92801,5.90447l-4.49707,-5.91791l-5.7823,0l4.47997,5.91791l5.80062,0l-0.00122,0zm19.447,-1.15817c-2.33833,-1.17161 -5.87759,-1.20582 -6.2722,-1.20582l-4.03161,0l1.70549,2.34566l2.31023,0c0.48501,0.00489 1.87164,0.09651 2.58023,0.45814c0.15393,0.07941 0.62551,0.31886 0.51311,0.97736c-0.09529,0.55832 -0.61574,0.75623 -1.11175,0.87718c-0.64384,0.15638 -1.33898,0.17348 -1.41228,0.1747l-3.40976,0l-1.27423,-1.67739l-5.80185,0l3.04447,4.02305l7.47557,0c2.81235,0 7.13838,-0.85397 7.54032,-3.21307c0.23701,-1.39396 -0.87718,-2.27114 -1.85454,-2.75982l-0.00122,0zm-11.00506,1.15817l-4.49707,-5.91791l-5.7823,0l4.47997,5.91791l5.80062,0l-0.00122,0z" class="cls-3"/>
  </g>
 </g>
</svg>