<?xml version="1.0" encoding="UTF-8" standalone="no"?>
<svg
   id="_이어_1"
   viewBox="0 0 140 59.999997"
   version="1.1"
   sodipodi:docname="VIPLogo_small.svg"
   width="140"
   height="60"
   inkscape:version="1.1 (c68e22c387, 2021-05-23)"
   xmlns:inkscape="http://www.inkscape.org/namespaces/inkscape"
   xmlns:sodipodi="http://sodipodi.sourceforge.net/DTD/sodipodi-0.dtd"
   xmlns="http://www.w3.org/2000/svg"
   xmlns:svg="http://www.w3.org/2000/svg">
  <sodipodi:namedview
     id="namedview24"
     pagecolor="#ffffff"
     bordercolor="#666666"
     borderopacity="1.0"
     inkscape:pageshadow="2"
     inkscape:pageopacity="0.0"
     inkscape:pagecheckerboard="0"
     showgrid="false"
     inkscape:zoom="2.7861579"
     inkscape:cx="197.225"
     inkscape:cy="94.9336"
     inkscape:window-width="2560"
     inkscape:window-height="1377"
     inkscape:window-x="-8"
     inkscape:window-y="-8"
     inkscape:window-maximized="1"
     inkscape:current-layer="_이어_1" />
  <defs
     id="defs11">
    <style
       id="style2">.cls-1{fill:#2c61b5;}.cls-2{fill:url(#_제_그라디언트_31);}</style>
    <linearGradient
       id="_제_그라디언트_31"
       x1="197.22"
       y1="175.78999"
       x2="197.22"
       y2="61.709999"
       gradientUnits="userSpaceOnUse"
       gradientTransform="matrix(0.26356017,0,0,0.26356017,2,8)">
      <stop
         offset="0"
         stop-color="#69c5f0"
         id="stop4" />
      <stop
         offset=".32"
         stop-color="#57a8df"
         id="stop6" />
      <stop
         offset="1"
         stop-color="#2c61b5"
         id="stop8" />
    </linearGradient>
  </defs>
  <g
     id="g19"
     transform="matrix(0.26356017,0,0,0.26356017,-0.77777778,5.2222222)">
    <path
       class="cls-1"
       d="m 309.6,178.46 h 16.71 v 7.25 H 302.3 v -36.18 h 7.3 z"
       id="path13" />
    <path
       class="cls-1"
       d="m 339.82,160.04 c 2.63,0 5.2,1.15 7.02,3.25 v -3.34 h 7.26 v 25.68 l -7.26,0.05 v -2.77 c -1.81,2.05 -4.39,3.2 -7.02,3.2 -7.83,0 -12.27,-6.02 -12.27,-13.03 0,-7.01 4.44,-13.03 12.27,-13.03 z m 6.54,13.03 c -0.05,-3.58 -2.72,-6.25 -5.78,-6.25 -4.06,0 -5.77,2.67 -5.77,6.25 0,3.58 1.72,6.21 5.77,6.21 3.05,0 5.73,-2.67 5.78,-6.21 z"
       id="path15" />
    <path
       class="cls-1"
       d="m 359.63,148.49 h 7.11 v 15.08 c 1.91,-2.05 4.68,-2.96 6.54,-2.96 7.45,0 11.6,5.68 11.6,12.27 0,6.59 -4.15,12.36 -11.6,12.36 -1.86,0 -4.44,-0.33 -6.54,-3.01 v 2.67 l -7.11,-0.05 v -36.37 z m 18,24.39 c 0,-3.1 -1.39,-5.54 -5.11,-5.54 -2.77,0 -5.11,2.44 -5.11,5.54 0,3.1 2.34,5.63 5.11,5.63 3.72,0 5.11,-2.43 5.11,-5.63 z"
       id="path17" />
  </g>
  <path
     class="cls-2"
     d="M 8.5942756,26.739128 2,8 h 12.542829 l 6.56792,18.739128 z m 52.6408714,0 L 67.829425,8 H 55.286594 l -6.567919,18.739128 z m -18.212005,0 L 49.617417,8 H 37.074589 l -6.56792,18.739128 z m -1.299353,3.689843 H 29.209953 l -3.405197,9.712193 -3.405199,-9.712193 H 9.8909917 L 19.571557,57.936744 19.550472,58 h 12.519109 l -0.02111,-0.06325 9.680567,-27.507774 z m 5.698172,0 L 37.757208,58 h 12.474303 l 9.70165,-27.571029 H 47.419325 Z M 105.88751,22.967582 C 105.02304,11.979759 95.693006,8 89.623214,8 H 73.495967 l -6.56792,18.739128 h 12.516472 l 2.748934,-7.811923 h 7.355964 c 0.1555,0.0053 1.657794,0.08697 3.046755,0.814401 1.070056,0.561383 2.192822,1.486479 2.398397,4.085183 0.242473,3.06784 -0.77223,4.187971 -1.106952,4.554319 -1.528648,1.686785 -4.522692,2.111117 -5.566389,2.134838 h -4.983922 l -3.6793,10.927204 h 8.697483 c 0.853936,0 8.486639,-0.158139 13.531181,-5.616467 2.10848,-2.279797 4.51215,-6.362343 4.00084,-12.859101 z M 65.631333,30.428971 55.966581,58 h 12.474302 l 9.70165,-27.571029 H 65.628697 Z"
     id="path21"
     style="fill:url(#_%EC%A0%9C_%EA%B7%B8%EB%9D%BC%EB%94%94%EC%96%B8%ED%8A%B8_31);stroke-width:0.26356" />
</svg>
